<svg width="224" height="48" viewBox="0 0 224 48" fill="none" xmlns="http://www.w3.org/2000/svg">
<path d="M180.314 8.80857L177.773 7.84504C177.486 7.73607 177.259 7.5094 177.15 7.2223L176.187 4.68099C176.138 4.55298 175.957 4.55298 175.908 4.68099L174.945 7.2223C174.836 7.5094 174.609 7.73607 174.322 7.84504L171.781 8.80857C171.653 8.85703 171.653 9.03865 171.781 9.08711L174.322 10.0507C174.609 10.1597 174.836 10.3863 174.945 10.6735L175.908 13.2147C175.957 13.3427 176.138 13.3427 176.187 13.2147L177.15 10.6735C177.259 10.3863 177.486 10.1597 177.773 10.0507L180.314 9.08711C180.442 9.03865 180.442 8.85703 180.314 8.80857Z" fill="#FFC704"/>
<path d="M174.433 13.5407L172.981 12.9902C172.817 12.929 172.687 12.7973 172.626 12.6349L172.076 11.1834C172.047 11.1105 171.944 11.1105 171.916 11.1834L171.365 12.6349C171.304 12.7996 171.172 12.929 171.01 12.9902L169.559 13.5407C169.486 13.5689 169.486 13.6724 169.559 13.7007L171.01 14.2512C171.175 14.3123 171.304 14.4441 171.365 14.6064L171.916 16.058C171.944 16.1309 172.047 16.1309 172.076 16.058L172.626 14.6064C172.687 14.4417 172.819 14.3123 172.981 14.2512L174.433 13.7007C174.506 13.6724 174.506 13.5689 174.433 13.5407Z" fill="#FFC704"/>
<path d="M172.694 5.66123L172.047 5.41661C171.974 5.38835 171.915 5.33184 171.887 5.25655L171.642 4.60963C171.63 4.57674 171.583 4.57674 171.572 4.60963L171.327 5.25655C171.299 5.32957 171.242 5.38835 171.167 5.41661L170.52 5.66123C170.487 5.67299 170.487 5.72001 170.52 5.73177L171.167 5.97649C171.24 6.00475 171.299 6.06116 171.327 6.13644L171.572 6.78347C171.583 6.81637 171.63 6.81637 171.642 6.78347L171.887 6.13644C171.915 6.06353 171.971 6.00475 172.047 5.97649L172.694 5.73177C172.727 5.72001 172.727 5.67299 172.694 5.66123Z" fill="#FFC704"/>
<path d="M39.16 17.8302C40.693 17.8302 42.0328 18.0943 43.1794 18.6225C44.3388 19.1507 45.2341 19.9043 45.8654 20.8834C46.5095 21.8625 46.8316 23.0154 46.8316 24.3423V34.526C46.8316 34.7063 46.78 34.848 46.677 34.9511C46.5868 35.0542 46.458 35.1057 46.2905 35.1057H43.933C43.8299 35.1057 43.7333 35.0735 43.6431 35.0091C43.5658 34.9447 43.5143 34.8674 43.4885 34.7772L43.1987 33.0767C42.6061 33.8625 41.8203 34.4873 40.8412 34.9511C39.8621 35.402 38.6834 35.6274 37.3049 35.6274C36.1068 35.6274 35.0376 35.4084 34.0972 34.9704C33.1696 34.5324 32.4418 33.9076 31.9136 33.096C31.3983 32.2844 31.1406 31.3376 31.1406 30.2554C31.1406 28.6838 31.643 27.4986 32.6479 26.6998C33.6527 25.9011 35.0762 25.4953 36.9184 25.4824L42.6383 25.4631V24.6515C42.6383 23.6338 42.3098 22.8286 41.6528 22.236C40.9958 21.6306 40.1584 21.3278 39.1407 21.3278C38.342 21.3278 37.5239 21.4244 36.6866 21.6177C35.8621 21.798 35.1535 22.0557 34.5609 22.3906C34.3806 22.4679 34.2196 22.5066 34.0778 22.5066C33.8073 22.5066 33.6334 22.41 33.5561 22.2167L32.6286 20.4196C32.577 20.3165 32.5513 20.2006 32.5513 20.0718C32.5513 19.7626 32.7381 19.5049 33.1117 19.2988C33.8717 18.8351 34.7993 18.4743 35.8943 18.2167C37.0022 17.959 38.0908 17.8302 39.16 17.8302ZM38.4837 32.2651C39.2309 32.2651 39.9201 32.1105 40.5513 31.8013C41.1954 31.4921 41.7043 31.067 42.0779 30.526C42.4515 29.9849 42.6383 29.3858 42.6383 28.7288V28.3037H37.4788C36.7961 28.3037 36.2679 28.4583 35.8943 28.7675C35.5207 29.0638 35.3339 29.4825 35.3339 30.0235C35.3339 30.6805 35.6366 31.2216 36.2421 31.6467C36.8476 32.059 37.5948 32.2651 38.4837 32.2651Z" fill="#023347"/>
<path d="M70.7545 17.8302C72.0556 17.8302 73.1699 18.133 74.0975 18.7384C75.025 19.331 75.7271 20.2006 76.2038 21.3471C76.6933 22.4808 76.9381 23.8399 76.9381 25.4245V34.5453C76.9381 34.7257 76.8866 34.8674 76.7835 34.9704C76.6933 35.0606 76.5645 35.1057 76.397 35.1057H73.2859C73.1184 35.1057 72.9831 35.0542 72.8801 34.9511C72.777 34.848 72.7255 34.7128 72.7255 34.5453V25.3858C72.7255 24.6902 72.5903 24.0718 72.3197 23.5307C72.0621 22.9897 71.7013 22.5774 71.2376 22.294C70.7738 21.9977 70.2521 21.8496 69.6723 21.8496C68.9896 21.8496 68.3777 22.0042 67.8366 22.3133C67.3084 22.6096 66.8897 23.0412 66.5805 23.608C66.2842 24.162 66.1361 24.8125 66.1361 25.5597V34.5453C66.1361 34.7128 66.0846 34.848 65.9815 34.9511C65.8913 35.0542 65.7561 35.1057 65.5757 35.1057H62.4839C62.3164 35.1057 62.1811 35.0542 62.0781 34.9511C61.975 34.848 61.9235 34.7128 61.9235 34.5453V25.3858C61.9235 24.6773 61.7882 24.0589 61.5177 23.5307C61.26 22.9897 60.8993 22.5774 60.4355 22.294C59.9718 21.9977 59.4436 21.8496 58.851 21.8496C58.1811 21.8496 57.5821 22.017 57.0539 22.352C56.5257 22.6741 56.1135 23.1249 55.8172 23.7046C55.5337 24.2844 55.392 24.9478 55.392 25.695V34.5453C55.392 34.9189 55.2117 35.1057 54.851 35.1057H51.7592C51.3985 35.1057 51.2181 34.9189 51.2181 34.5453V18.8737C51.2181 18.7062 51.2632 18.5774 51.3534 18.4872C51.4564 18.3842 51.5981 18.3326 51.7785 18.3326H54.2326C54.5418 18.3326 54.7221 18.4486 54.7737 18.6805L55.1022 20.4003C55.6561 19.5887 56.3518 18.9574 57.1891 18.5065C58.0265 18.0557 58.9412 17.8302 59.9331 17.8302C61.1956 17.8302 62.2842 18.1136 63.1989 18.6805C64.1264 19.2473 64.8349 20.0718 65.3245 21.1539C65.814 20.1233 66.5419 19.3117 67.5081 18.7191C68.4871 18.1265 69.5693 17.8302 70.7545 17.8302Z" fill="#023347"/>
<path d="M91.1411 17.8302C92.6742 17.8302 94.0526 18.2167 95.2764 18.9896C96.5003 19.7626 97.4536 20.8254 98.1363 22.1781C98.832 23.5307 99.1798 25.0444 99.1798 26.7192C99.1798 28.3939 98.832 29.9076 98.1363 31.2603C97.4536 32.6129 96.5003 33.6757 95.2764 34.4487C94.0526 35.2216 92.6806 35.6081 91.1604 35.6081C90.001 35.6081 88.9382 35.3762 87.972 34.9125C87.0058 34.4487 86.1749 33.7852 85.4792 32.9221L85.5179 42.8352C85.5179 43.0156 85.4664 43.1509 85.3633 43.241C85.2731 43.3441 85.1379 43.3956 84.9575 43.3956H81.8464C81.6918 43.3956 81.5629 43.3441 81.4599 43.241C81.3697 43.138 81.3246 43.0027 81.3246 42.8352V18.9123C81.3246 18.7449 81.3697 18.6096 81.4599 18.5065C81.5629 18.4035 81.6918 18.352 81.8464 18.352H84.3971C84.6548 18.352 84.8029 18.455 84.8416 18.6611L85.1894 20.9027C85.8722 19.9236 86.7224 19.17 87.7401 18.6418C88.7707 18.1007 89.9044 17.8302 91.1411 17.8302ZM90.3875 31.5115C91.2506 31.5115 92.0429 31.2989 92.7643 30.8738C93.4858 30.4487 94.059 29.8689 94.4841 29.1346C94.9093 28.4003 95.1218 27.6016 95.1218 26.7385C95.1218 25.8496 94.9093 25.038 94.4841 24.3037C94.059 23.5565 93.4793 22.9703 92.745 22.5452C92.0236 22.1072 91.2313 21.8882 90.3682 21.8882C89.4793 21.8882 88.6612 22.1072 87.914 22.5452C87.1797 22.9703 86.5936 23.5565 86.1556 24.3037C85.7305 25.038 85.5179 25.8496 85.5179 26.7385C85.5179 27.6145 85.7305 28.4197 86.1556 29.154C86.5936 29.8754 87.1862 30.4487 87.9334 30.8738C88.6806 31.2989 89.4986 31.5115 90.3875 31.5115Z" fill="#023347"/>
<path d="M117.634 18.352C117.995 18.352 118.175 18.5387 118.175 18.9123V34.584C118.175 34.7514 118.124 34.8867 118.021 34.9898C117.93 35.0799 117.795 35.125 117.615 35.125H115.141C114.845 35.125 114.671 35.0026 114.62 34.7579L114.291 33.0381C113.673 33.8497 112.9 34.4873 111.972 34.9511C111.058 35.4149 110.072 35.6468 109.016 35.6468C107.637 35.6468 106.439 35.3376 105.421 34.7192C104.404 34.1009 103.624 33.2184 103.083 32.0719C102.542 30.9253 102.272 29.5791 102.272 28.0332V18.9317C102.272 18.7513 102.323 18.616 102.426 18.5259C102.529 18.4228 102.665 18.3713 102.832 18.3713H105.924C106.104 18.3713 106.239 18.4228 106.33 18.5259C106.433 18.616 106.484 18.7513 106.484 18.9317V28.0718C106.484 28.7288 106.645 29.3279 106.967 29.8689C107.302 30.41 107.747 30.8416 108.301 31.1636C108.868 31.4728 109.479 31.6274 110.136 31.6274C110.832 31.6274 111.47 31.4664 112.05 31.1443C112.642 30.8094 113.112 30.352 113.46 29.7723C113.808 29.1797 113.982 28.5163 113.982 27.782V18.9123C113.982 18.5387 114.162 18.352 114.523 18.352H117.634Z" fill="#023347"/>
<path d="M128.977 21.6756C128.307 21.6756 127.786 21.798 127.412 22.0428C127.051 22.2747 126.871 22.5967 126.871 23.009C126.871 23.2795 126.948 23.5114 127.103 23.7046C127.27 23.885 127.573 24.0654 128.011 24.2457C128.449 24.4132 129.1 24.6064 129.963 24.8254C131.315 25.1604 132.43 25.5662 133.306 26.0428C134.195 26.5066 134.871 27.1056 135.335 27.8399C135.811 28.5742 136.05 29.4889 136.05 30.5839C136.05 32.22 135.438 33.4696 134.214 34.3327C132.99 35.1959 131.322 35.6274 129.209 35.6274C127.908 35.6274 126.645 35.4278 125.422 35.0284C124.198 34.6162 123.154 34.1653 122.291 33.6757C122.033 33.534 121.905 33.3537 121.905 33.1347C121.905 32.993 121.95 32.8577 122.04 32.7289L123.277 30.5453C123.418 30.3134 123.599 30.1974 123.818 30.1974C123.947 30.1974 124.088 30.2361 124.243 30.3134C126.059 31.2538 127.715 31.724 129.209 31.724C130.137 31.724 130.839 31.621 131.315 31.4148C131.792 31.2087 132.03 30.8673 132.03 30.3907C132.03 29.9269 131.786 29.5533 131.296 29.2699C130.806 28.9736 130.027 28.6902 128.958 28.4197C127.567 28.0718 126.439 27.6789 125.576 27.2409C124.713 26.8029 124.05 26.2232 123.586 25.5018C123.135 24.7803 122.91 23.8592 122.91 22.7385C122.91 21.8624 123.148 21.0508 123.624 20.3037C124.101 19.5436 124.797 18.9381 125.711 18.4872C126.626 18.0235 127.715 17.7916 128.977 17.7916C130.085 17.7916 131.187 17.959 132.282 18.294C133.389 18.6289 134.323 19.0218 135.084 19.4727C135.367 19.6273 135.509 19.8206 135.509 20.0524C135.509 20.1813 135.464 20.3165 135.373 20.4583L134.117 22.5645C133.963 22.8222 133.776 22.951 133.557 22.951C133.518 22.951 133.447 22.9381 133.344 22.9124C132.713 22.5774 132.005 22.2876 131.219 22.0428C130.433 21.798 129.686 21.6756 128.977 21.6756Z" fill="#023347"/>
<path d="M159.296 17.8302C160.597 17.8302 161.712 18.133 162.639 18.7384C163.567 19.331 164.269 20.2006 164.746 21.3471C165.235 22.4808 165.48 23.8399 165.48 25.4245V34.5453C165.48 34.7257 165.428 34.8674 165.325 34.9704C165.235 35.0606 165.106 35.1057 164.939 35.1057H161.828C161.66 35.1057 161.525 35.0542 161.422 34.9511C161.319 34.848 161.267 34.7128 161.267 34.5453V25.3858C161.267 24.6902 161.132 24.0718 160.861 23.5307C160.604 22.9897 160.243 22.5774 159.779 22.294C159.316 21.9977 158.794 21.8496 158.214 21.8496C157.531 21.8496 156.919 22.0042 156.378 22.3133C155.85 22.6096 155.431 23.0412 155.122 23.608C154.826 24.162 154.678 24.8125 154.678 25.5597V34.5453C154.678 34.7128 154.626 34.848 154.523 34.9511C154.433 35.0542 154.298 35.1057 154.117 35.1057H151.026C150.858 35.1057 150.723 35.0542 150.62 34.9511C150.517 34.848 150.465 34.7128 150.465 34.5453V25.3858C150.465 24.6773 150.33 24.0589 150.059 23.5307C149.802 22.9897 149.441 22.5774 148.977 22.294C148.514 21.9977 147.985 21.8496 147.393 21.8496C146.723 21.8496 146.124 22.017 145.596 22.352C145.067 22.6741 144.655 23.1249 144.359 23.7046C144.075 24.2844 143.934 24.9478 143.934 25.695V34.5453C143.934 34.9189 143.753 35.1057 143.393 35.1057H140.301C139.94 35.1057 139.76 34.9189 139.76 34.5453V18.8737C139.76 18.7062 139.805 18.5774 139.895 18.4872C139.998 18.3842 140.14 18.3326 140.32 18.3326H142.774C143.084 18.3326 143.264 18.4486 143.315 18.6805L143.644 20.4003C144.198 19.5887 144.894 18.9574 145.731 18.5065C146.568 18.0557 147.483 17.8302 148.475 17.8302C149.737 17.8302 150.826 18.1136 151.741 18.6805C152.668 19.2473 153.377 20.0718 153.866 21.1539C154.356 20.1233 155.084 19.3117 156.05 18.7191C157.029 18.1265 158.111 17.8302 159.296 17.8302Z" fill="#2A8E9E"/>
<path d="M173.519 18.3326C173.686 18.3326 173.815 18.3777 173.905 18.4679C174.008 18.5581 174.06 18.6869 174.06 18.8544V34.584C174.06 34.7514 174.008 34.8803 173.905 34.9704C173.815 35.0606 173.686 35.1057 173.519 35.1057H170.388C170.04 35.1057 169.866 34.9318 169.866 34.584V18.8544C169.866 18.5065 170.04 18.3326 170.388 18.3326H173.519Z" fill="#2A8E9E"/>
<path d="M187.876 17.8109C189.255 17.8109 190.453 18.1201 191.47 18.7384C192.488 19.3568 193.267 20.2392 193.809 21.3858C194.35 22.5323 194.62 23.8721 194.62 25.4051V34.526C194.62 34.6935 194.569 34.8287 194.466 34.9318C194.375 35.022 194.24 35.0671 194.06 35.0671H190.968C190.788 35.0671 190.646 35.022 190.543 34.9318C190.453 34.8287 190.408 34.6935 190.408 34.526V25.3858C190.408 24.7288 190.24 24.1298 189.905 23.5887C189.583 23.0348 189.139 22.6032 188.572 22.294C188.018 21.9848 187.412 21.8302 186.755 21.8302C186.06 21.8302 185.416 21.9977 184.823 22.3327C184.23 22.6547 183.76 23.112 183.412 23.7046C183.064 24.2844 182.891 24.9349 182.891 25.6563V34.5453C182.891 34.9189 182.71 35.1057 182.35 35.1057H179.258C178.897 35.1057 178.717 34.9189 178.717 34.5453V18.8737C178.717 18.7062 178.762 18.5774 178.852 18.4872C178.955 18.3842 179.097 18.3326 179.277 18.3326H181.731C182.04 18.3326 182.221 18.4486 182.272 18.6805L182.601 20.4196C183.219 19.608 183.986 18.9703 184.9 18.5065C185.828 18.0428 186.82 17.8109 187.876 17.8109Z" fill="#2A8E9E"/>
<path d="M215.045 6.83496C215.226 6.83496 215.361 6.88649 215.451 6.98956C215.554 7.07973 215.606 7.215 215.606 7.39536V34.526C215.606 34.7063 215.554 34.848 215.451 34.9511C215.361 35.0542 215.226 35.1057 215.045 35.1057H212.514C212.411 35.1057 212.314 35.0799 212.224 35.0284C212.147 34.964 212.095 34.8867 212.069 34.7965L211.722 32.5356C211.039 33.5147 210.182 34.2748 209.152 34.8158C208.121 35.344 206.987 35.6081 205.751 35.6081C204.23 35.6081 202.859 35.2216 201.635 34.4487C200.411 33.6757 199.451 32.6129 198.755 31.2603C198.06 29.9076 197.712 28.3939 197.712 26.7192C197.712 25.0444 198.053 23.5307 198.736 22.1781C199.432 20.8254 200.391 19.769 201.615 19.009C202.839 18.236 204.218 17.8495 205.751 17.8495C206.923 17.8495 207.992 18.0879 208.958 18.5645C209.937 19.0283 210.768 19.6917 211.451 20.5549L211.393 7.39536C211.393 7.22788 211.438 7.09262 211.528 6.98956C211.632 6.88649 211.767 6.83496 211.934 6.83496H215.045ZM206.543 31.5501C207.432 31.5501 208.243 31.3376 208.978 30.9124C209.725 30.4744 210.311 29.8883 210.736 29.154C211.174 28.4068 211.393 27.5887 211.393 26.6998C211.393 25.8238 211.174 25.0251 210.736 24.3037C210.311 23.5694 209.725 22.9897 208.978 22.5645C208.23 22.1394 207.412 21.9269 206.524 21.9269C205.66 21.9269 204.862 22.1394 204.127 22.5645C203.406 22.9897 202.833 23.5694 202.408 24.3037C201.982 25.038 201.77 25.8367 201.77 26.6998C201.77 27.5887 201.982 28.4068 202.408 29.154C202.833 29.8883 203.406 30.4744 204.127 30.9124C204.862 31.3376 205.667 31.5501 206.543 31.5501Z" fill="#2A8E9E"/>
<path d="M25.7987 30.0923C25.9411 30.0211 26.0693 29.9854 26.1833 29.9854C26.3827 29.9854 26.5393 30.0638 26.6533 30.2205L28.3838 32.7628C28.4835 32.8768 28.5334 33.0049 28.5334 33.1474C28.5334 33.3325 28.4408 33.4963 28.2556 33.6388C27.3583 34.4079 26.3542 35.0061 25.2432 35.4334C24.1465 35.8607 22.9929 36.0743 21.7822 36.0743C19.9876 36.0743 18.3283 35.6328 16.8043 34.7497C15.2946 33.8666 14.091 32.6774 13.1937 31.1819C12.3107 29.6721 11.8691 28.027 11.8691 26.2467C11.8691 24.4663 12.3107 22.8284 13.1937 21.3329C14.0768 19.8231 15.2732 18.6338 16.7829 17.765C18.3069 16.882 19.9662 16.4404 21.7608 16.4404C22.9857 16.4404 24.1608 16.6541 25.286 17.0814C26.4112 17.4944 27.4153 18.0784 28.2983 18.8332C28.455 18.9757 28.5334 19.1252 28.5334 19.2819C28.5334 19.4243 28.4835 19.5667 28.3838 19.7092L26.6747 22.3156C26.5465 22.5008 26.3898 22.5934 26.2046 22.5934C26.0765 22.5934 25.9483 22.5506 25.8201 22.4652C24.5667 21.4539 23.235 20.9483 21.8249 20.9483C20.8707 20.9483 19.9947 21.1833 19.1971 21.6533C18.3995 22.1234 17.7657 22.7643 17.2957 23.5761C16.8399 24.388 16.612 25.271 16.612 26.2253C16.612 27.1796 16.847 28.0698 17.3171 28.8959C17.7871 29.7077 18.4209 30.3558 19.2185 30.84C20.0161 31.3243 20.892 31.5664 21.8463 31.5664C23.3133 31.5664 24.6308 31.075 25.7987 30.0923Z" fill="#023347"/>
<path d="M25.7987 30.0923C25.9411 30.0211 26.0693 29.9854 26.1833 29.9854C26.3827 29.9854 26.5393 30.0638 26.6533 30.2205L28.3838 32.7628C28.4835 32.8768 28.5334 33.0049 28.5334 33.1474C28.5334 33.3325 28.4408 33.4963 28.2556 33.6388C27.3583 34.4079 26.3542 35.0061 25.2432 35.4334C24.1465 35.8607 22.9929 36.0743 21.7822 36.0743C19.9876 36.0743 18.3283 35.6328 16.8043 34.7497C15.2946 33.8666 14.091 32.6774 13.1937 31.1819C12.3107 29.6721 11.8691 28.027 11.8691 26.2467C11.8691 24.4663 12.3107 22.8284 13.1937 21.3329C14.0768 19.8231 15.2732 18.6338 16.7829 17.765C18.3069 16.882 19.9662 16.4404 21.7608 16.4404C22.9857 16.4404 24.1608 16.6541 25.286 17.0814C26.4112 17.4944 27.4153 18.0784 28.2983 18.8332C28.455 18.9757 28.5334 19.1252 28.5334 19.2819C28.5334 19.4243 28.4835 19.5667 28.3838 19.7092L26.6747 22.3156C26.5465 22.5008 26.3898 22.5934 26.2046 22.5934C26.0765 22.5934 25.9483 22.5506 25.8201 22.4652C24.5667 21.4539 23.235 20.9483 21.8249 20.9483C20.8707 20.9483 19.9947 21.1833 19.1971 21.6533C18.3995 22.1234 17.7657 22.7643 17.2957 23.5761C16.8399 24.388 16.612 25.271 16.612 26.2253C16.612 27.1796 16.847 28.0698 17.3171 28.8959C17.7871 29.7077 18.4209 30.3558 19.2185 30.84C20.0161 31.3243 20.892 31.5664 21.8463 31.5664C23.3133 31.5664 24.6308 31.075 25.7987 30.0923Z" fill="#023347"/>
<path d="M25.7987 30.0923C25.9411 30.0211 26.0693 29.9854 26.1833 29.9854C26.3827 29.9854 26.5393 30.0638 26.6533 30.2205L28.3838 32.7628C28.4835 32.8768 28.5334 33.0049 28.5334 33.1474C28.5334 33.3325 28.4408 33.4963 28.2556 33.6388C27.3583 34.4079 26.3542 35.0061 25.2432 35.4334C24.1465 35.8607 22.9929 36.0743 21.7822 36.0743C19.9876 36.0743 18.3283 35.6328 16.8043 34.7497C15.2946 33.8666 14.091 32.6774 13.1937 31.1819C12.3107 29.6721 11.8691 28.027 11.8691 26.2467C11.8691 24.4663 12.3107 22.8284 13.1937 21.3329C14.0768 19.8231 15.2732 18.6338 16.7829 17.765C18.3069 16.882 19.9662 16.4404 21.7608 16.4404C22.9857 16.4404 24.1608 16.6541 25.286 17.0814C26.4112 17.4944 27.4153 18.0784 28.2983 18.8332C28.455 18.9757 28.5334 19.1252 28.5334 19.2819C28.5334 19.4243 28.4835 19.5667 28.3838 19.7092L26.6747 22.3156C26.5465 22.5008 26.3898 22.5934 26.2046 22.5934C26.0765 22.5934 25.9483 22.5506 25.8201 22.4652C24.5667 21.4539 23.235 20.9483 21.8249 20.9483C20.8707 20.9483 19.9947 21.1833 19.1971 21.6533C18.3995 22.1234 17.7657 22.7643 17.2957 23.5761C16.8399 24.388 16.612 25.271 16.612 26.2253C16.612 27.1796 16.847 28.0698 17.3171 28.8959C17.7871 29.7077 18.4209 30.3558 19.2185 30.84C20.0161 31.3243 20.892 31.5664 21.8463 31.5664C23.3133 31.5664 24.6308 31.075 25.7987 30.0923Z" fill="#023347"/>
<path d="M25.7987 30.0923C25.9411 30.0211 26.0693 29.9854 26.1833 29.9854C26.3827 29.9854 26.5393 30.0638 26.6533 30.2205L28.3838 32.7628C28.4835 32.8768 28.5334 33.0049 28.5334 33.1474C28.5334 33.3325 28.4408 33.4963 28.2556 33.6388C27.3583 34.4079 26.3542 35.0061 25.2432 35.4334C24.1465 35.8607 22.9929 36.0743 21.7822 36.0743C19.9876 36.0743 18.3283 35.6328 16.8043 34.7497C15.2946 33.8666 14.091 32.6774 13.1937 31.1819C12.3107 29.6721 11.8691 28.027 11.8691 26.2467C11.8691 24.4663 12.3107 22.8284 13.1937 21.3329C14.0768 19.8231 15.2732 18.6338 16.7829 17.765C18.3069 16.882 19.9662 16.4404 21.7608 16.4404C22.9857 16.4404 24.1608 16.6541 25.286 17.0814C26.4112 17.4944 27.4153 18.0784 28.2983 18.8332C28.455 18.9757 28.5334 19.1252 28.5334 19.2819C28.5334 19.4243 28.4835 19.5667 28.3838 19.7092L26.6747 22.3156C26.5465 22.5008 26.3898 22.5934 26.2046 22.5934C26.0765 22.5934 25.9483 22.5506 25.8201 22.4652C24.5667 21.4539 23.235 20.9483 21.8249 20.9483C20.8707 20.9483 19.9947 21.1833 19.1971 21.6533C18.3995 22.1234 17.7657 22.7643 17.2957 23.5761C16.8399 24.388 16.612 25.271 16.612 26.2253C16.612 27.1796 16.847 28.0698 17.3171 28.8959C17.7871 29.7077 18.4209 30.3558 19.2185 30.84C20.0161 31.3243 20.892 31.5664 21.8463 31.5664C23.3133 31.5664 24.6308 31.075 25.7987 30.0923Z" fill="#023347"/>
<path d="M5.84706 31.9482L6.55329 30.3549L6.54097 29.724C6.32811 29.6234 6.21728 29.3084 6.21319 29.0992C6.20911 28.8898 6.20291 28.5729 6.51632 28.4621L6.39097 22.0433L7.12803 22.0289C7.12599 21.9243 7.25338 28.4477 7.25338 28.4477C7.46624 28.5482 7.57706 28.8631 7.58115 29.0725C7.58524 29.2817 7.58939 29.4941 7.27599 29.6049L7.29243 30.4467L8.06036 32.0112L5.85067 32.0543L5.84862 31.9497L5.84706 31.9482Z" fill="#FFC704"/>
<path fill-rule="evenodd" clip-rule="evenodd" d="M21.4374 12.7836L22.7531 15.5213C21.9711 15.4427 21.2829 15.4331 20.4962 15.5069L18.9609 15.717C17.5847 15.8731 16.5067 16.5844 15.2904 17.3594C14.1305 18.2673 13.1772 19.186 12.3235 20.559C12.2741 20.6292 12.2304 20.7482 12.2157 20.7855C12.1203 21.026 11.0012 23.4544 11.1204 24.8284L9.25939 22.1491L9.13042 21.9315L8.36431 21.9541L6.23199 22.0958L4.73283 22.3407C4.71702 22.2409 4.05766 22.4508 4.05766 22.4508L11.2228 9.26222L21.356 7.19846L23.756 6.80675L21.4216 12.6839L21.4374 12.7836Z" fill="#2A8E9E"/>
</svg>
